<?xml version="1.0" encoding="utf-8"?>
<svg version="1.1" id="Calque_1" xmlns="http://www.w3.org/2000/svg" xmlns:xlink="http://www.w3.org/1999/xlink" x="0px" y="0px"
	 width="512px" height="512px" viewBox="0 0 512 512" fill="none">
<g>
	<polygon fill="#FFFFFF" points="57.1,9.4 16.6,9.4 10.8,13.1 7.1,24.9 10,44 19.9,53.4 40.2,55.4 53,49.5 59.4,38 68.2,34.4 
		71.5,25.6 68.9,14.5 60.6,9.4"/>
	<path fill="#232323" d="M60,41.1c-1.3,4-3.4,7.6-6.3,10.7c-4.5,4.7-10,7.2-16.5,7.7c-4.6,0.3-9.2,0.4-13.7-1.1
		C15.1,55.7,10,49.9,7.2,41.7c-1.8-5.3-2-10.9-2.1-16.4c-0.1-2.8,0-5.5,0.7-8.2c1.6-6.3,6.6-10.5,13-11.1c9.1-0.9,18.3-0.7,27.5-0.7
		c4.2,0,8.4,0.1,12.6,0.6c5.3,0.7,10,2.5,13.3,7c2.8,3.9,3.4,8.3,3,12.9c-0.8,7.8-5.9,13.4-13.6,14.9C61,41,60.6,41,60,41.1z
		 M55.5,35.6c1,0,1.9,0,2.8,0c2.3,0,4.4-0.7,6.3-2c4.3-3,5.4-7.3,4.8-12.2c-0.5-3.9-2.5-6.6-6-8.3c-2.1-1-4.3-1.4-6.6-1.6
		C51.3,11,45.8,11,40.3,11c-6.9,0-13.7-0.1-20.6,0.7c-5.3,0.7-8,3.3-8.8,8.6c-0.2,1.7-0.1,3.3-0.1,5c0.1,4.9,0.3,9.7,1.7,14.4
		c1.9,6.1,5.4,10.8,11.6,12.9c3.6,1.2,7.3,1.3,11,1.2c9.7-0.2,16.4-5.2,19.3-14.2C54.8,38.3,55.1,37,55.5,35.6z"/>
	<path fill="#FDFDFD" d="M55.5,35.6c-0.4,1.4-0.6,2.8-1.1,4.1c-2.9,9.1-9.6,14-19.3,14.2c-3.7,0.1-7.4,0-11-1.2
		c-6.3-2.2-9.7-6.8-11.6-12.9c-1.5-4.7-1.7-9.6-1.7-14.4c0-1.7-0.1-3.3,0.1-5c0.8-5.3,3.5-7.9,8.8-8.6c6.8-0.9,13.7-0.7,20.6-0.7
		c5.5,0,11,0,16.5,0.5c2.3,0.2,4.5,0.7,6.6,1.6c3.5,1.6,5.5,4.4,6,8.3c0.6,4.9-0.5,9.2-4.8,12.2c-1.9,1.3-4,2-6.3,2
		C57.4,35.6,56.5,35.6,55.5,35.6z M33.8,21.9c-0.2-0.2-0.3-0.3-0.4-0.5c-2-2.6-4.7-3.7-7.9-3.1c-3.4,0.6-5.7,2.7-6.7,6
		c-1.2,3.7-0.3,7.1,1.7,10.2c2.8,4.5,7.1,7.4,11.6,10c1.2,0.7,2.6,0.6,3.8-0.1c2.7-1.6,5.4-3.3,7.7-5.5c3-2.8,5.2-6,5.8-10.2
		c0.8-5.5-3.3-10.5-8.7-10.5C37.7,18.2,35.6,19.6,33.8,21.9z M55.5,23.5c0,1.3,0,2.7,0,4c0,1.4,0.6,1.9,2,2c3.6,0.1,5.9-2.2,5.9-5.9
		s-2.3-6-6-5.8c-1.3,0-1.9,0.6-1.9,1.9C55.4,20.9,55.5,22.2,55.5,23.5z"/>
	<path fill="#FE5A17" d="M33.8,21.9c1.8-2.3,3.9-3.7,6.9-3.7c5.4,0.1,9.5,5,8.7,10.5c-0.6,4.2-2.9,7.4-5.8,10.2
		c-2.3,2.2-5,3.9-7.7,5.5c-1.2,0.7-2.6,0.8-3.8,0.1c-4.5-2.6-8.8-5.4-11.6-10c-2-3.2-2.9-6.6-1.7-10.2c1.1-3.3,3.3-5.3,6.7-6
		c3.2-0.6,5.9,0.5,7.9,3.1C33.5,21.6,33.6,21.7,33.8,21.9z"/>
	<path fill="#232323" d="M55.5,23.5c0-1.3,0-2.6,0-3.9s0.6-1.9,1.9-1.9c3.6-0.1,5.9,2.1,6,5.8c0,3.7-2.3,6-5.9,5.9c-1.4,0-2-0.6-2-2
		C55.4,26.2,55.5,24.8,55.5,23.5z"/>
</g>
</svg>
